<svg enable-background="new 0 0 275 200" viewBox="0 0 275 200" xmlns="http://www.w3.org/2000/svg"><path d="m94.5 142.8v4.3c.1 1.2-.2 2.4.3 3.7h3.4v4.1c1.4.1 2.6.2 4 .2.1 1.1.2 2.1.3 3.5 1 .1 2.1.2 3.4.3.1 1.3.2 2.5.2 4h7.7c.1 1.3.1 2.4.2 3.6 1.3.1 2.5.2 3.9.3.1 1.4.1 2.7.2 4-6.4 0-12.8 0-19.2 0-13.5 0-27 0-40.5 0-1.2 0-2.4 0-3.9 0-.1-1.2-.2-2.3-.3-3.6-1.1-.1-2.2-.2-3.5-.3-.1-1.3-.2-2.6-.3-3.9-1.3-.1-2.5-.2-3.9-.3 0-2.6-.1-5.1-.1-7.6s0-5.1 0-7.8c-1.2-.1-2.3-.2-3.5-.3-.5-1.9-.1-3.8-.2-5.7-.1-1.8 0-3.7 0-5.7-1.3-.1-2.5-.2-3.9-.3-.4-5.3-.1-10.5-.2-15.7-.1-5.1 0-10.3 0-15.6 1.5-.1 2.6-.2 4-.3 0-3.9 0-7.7 0-11.7 1.3-.1 2.4-.2 3.8-.3.1-2.5.2-5 .2-7.6 1.4-.1 2.6-.2 3.9-.3 0-2.5 0-5 0-7.6 1.3-.1 2.4-.2 3.7-.3.1-2.5.1-5 .2-7.6 1.4-.1 2.6-.2 3.9-.3 0-2.5 0-5 0-7.6 1.3-.1 2.4-.2 3.7-.3.1-1.1.2-2.2.3-3.5 1.2-.1 2.4-.2 3.9-.2.1-1.2.1-2.5.2-3.9 1.2-.1 2.3-.1 3.6-.2.1-1.2.1-2.3.2-3.5 1.3-.1 2.5-.2 3.9-.3.1-1.3.2-2.5.3-3.9h7.6c.1-1.3.2-2.4.3-3.7 1.1-.1 2.2-.2 3.5-.3.1-1.2.2-2.4.3-3.7 2.4-.6 5 0 7.6-.4.1-1.1.2-2.2.3-3.6h7.7c.1-1.4.1-2.5.2-3.8.7-.1 1.4-.3 2-.3h10.8 2.7c.1-1.3.2-2.4.3-3.4 2.1-.4 24.7-.5 27.7-.1v3.2c3.3.5 6.6.2 9.8.3h9.7c.1 1.3.1 2.5.2 4 2.4.4 5 0 7.6.2.1 1.1.2 2.2.3 3.6h7.6c.1 1.5.2 2.7.3 4.1h7.5c.1 1.3.2 2.4.3 3.7 1.2.1 2.4.1 3.9.2.1 1.3.1 2.5.2 4 1.2.1 2.3.1 3.6.2.1 1.2.1 2.2.2 3.3 1.2.8 2.6 0 3.9.6.1 1.2.1 2.4.2 3.7 1.2.1 2.3.2 3.5.3.1 1.1.2 2.2.3 3.5 1.2.1 2.4.2 3.8.3.1 1.3.2 2.5.3 3.9 1.2.1 2.2.1 3.5.2.1 1.1.2 2.2.3 3.4 1.1.7 2.5 0 3.9.6 0 1.2.1 2.5.1 3.8 0 1.4-.1 2.8-.1 4.2-1.5.1-2.7.1-4 .2-.1 1.3-.1 2.3-.2 3.4-1.2.1-2.3.2-3.5.3-.1 1.4-.1 2.7-.2 4-1.5.1-2.7.1-3.9.2-.1 1.3-.2 2.3-.3 3.5-1.2.1-2.3.2-3.4.3-.1 1.4-.1 2.6-.2 3.9-1.4.1-2.7.2-3.9.2-.1 1.3-.2 2.4-.3 3.4-1.3.1-2.3.2-3.4.3-.1 1.4-.1 2.7-.2 4-1.5.1-2.7.1-3.9.2-.1 1.2-.2 2.3-.3 3.5-1.2.1-2.3.2-3.4.3-.1 1.4-.1 2.6-.2 3.9-1.4.1-2.7.2-4 .3-.1 1.3-.2 2.4-.3 3.4-1.3.1-2.3.2-3.4.2-.1 1.2-.2 2.3-.3 3.5-1.3.1-2.4.2-3.8.3-.1 1.4-.3 2.6-.4 3.9-1.2.1-2.3.2-3.4.3-.1 1.3 0 2.6-.1 3.5l-4.1.2c-.1 1.1-.2 2.6-.3 3.8-1.3.1-2.4.2-3.4.3-.1 1.3-.2 2.3-.3 3.4-1.3.1-2.5.2-3.8.3-.2 1.5-.3 2.7-.5 3.9-1.2.1-2.3.2-3.3.3-.1 1.2-.2 2.3-.3 3.4-1.4.1-2.6.3-3.9.4-.1 1.4-.2 2.6-.3 3.8-1.2.1-2.3.2-3.6.3v4.1c-1.3-.3-2.5-.5-4-.8-.1-.9-.2-2-.3-3.3-1.1-.1-2.2-.2-3.5-.3-.1-1.2-.2-2.3-.4-3.7-1.2-.1-2.4-.3-3.7-.4-.1-.6-.2-1.1-.2-1.7 0-.5 0-1 0-1.7-1.2-.1-2.3-.2-3.6-.3-.1-1.2-.2-2.4-.4-3.8-1.2-.1-2.4-.3-3.7-.4-.1-.6-.2-1.1-.2-1.7 0-.5 0-1 0-1.7-1.2-.1-2.3-.2-3.6-.3-.1-1.1-.2-2.2-.3-3.5-1.2-.1-2.4-.2-3.9-.3 0-1.3 0-2.5 0-4-1.4-.1-2.5-.1-3.7-.2 0-2.6 0-5 0-7.6 1-.1 2.1-.2 3.5-.3.1-1.2.1-2.5.2-3.9 1.3-.1 2.5-.1 3.9-.2.1-1.2.2-2.3.3-3.5 1.1-.1 2.2-.2 3.5-.3.1-1.3.2-2.4.3-3.8 1.3-.1 2.5-.2 3.9-.3 0-1.2 0-2.2 0-3.4 1.2-.1 2.3-.2 3.7-.3.1-1.2.1-2.5.2-3.9 1.3-.1 2.5-.1 3.9-.2.1-1.2.2-2.3.3-3.5 1.1-.1 2.2-.2 3.5-.3.1-1.3.2-2.4.3-3.8 1.3-.1 2.5-.2 3.9-.3 0-1.2 0-2.2 0-3.4 1.2-.1 2.3-.2 3.6-.3 0-1.1 0-2.1 0-3.3l.1-.9c0-1.2 0-2.2 0-3.4-10.3 0-20.5 0-30.8 0-.1 1.3-.2 2.5-.3 3.9-2.7.1-5.1.2-7.6.3-.1 1.3-.2 2.3-.2 3.5-1.4.1-2.7.2-3.8.2-.6 1.4.2 2.9-.6 4-1.1.1-2.1.2-3.2.2-.1 1.2-.2 2.3-.3 3.6-1.4 0-2.6 0-3.9 0-.1 1.5-.2 2.7-.3 4-1.3.1-2.4.2-3.4.3-.5 2.6.2 5.1-.5 7.5-1.4.1-2.5.2-4 .4v7.6c-1.3.1-2.3.1-3.6.2v26.7h3.6v4.1 3.7h3.6c.7-.2.7-.9.7-.2zm66.6 24v4.3s43.5-.2 46.4-.2 5.6 0 8.4 0h8.6c0-2.6 0-5.1 0-7.7 1.3-.1 2.4-.2 3.7-.3 0-3.7 0-7.4 0-11.3 1.5-.1 2.7-.1 4-.2l.3-5.9c.1-2 0-4 0-6v-4.1s-.8 0-1 0c-14.7 0-46.9.2-46.9.2v5.9c0 1.9 0 3.8-.1 5.7-1.4.1-2.5.2-3.6.3-.1 1.3-.2 2.4-.3 3.5-1.4.1-2.5.2-3.8.3-.1 1.4-.2 2.6-.3 3.8-1.3.1-2.4.2-3.5.3-.1 1.3-.2 2.4-.3 3.5-1.3.1-2.5.2-3.8.3-.1 1.4-.2 2.6-.3 3.9-1.2.1-2.3.1-3.5.2-.1 1.3-.2 2.4-.3 3.6.1-.3.1-.3-3.7-.1z" fill="#f39200"/><path d="m145.5 147.8c0-1.3 0-2.6 0-4.1 1.2-.1 2.3-.2 3.6-.3.1-1.2.2-2.4.3-3.8 1.3-.1 2.5-.3 3.9-.4.1-1 .2-2.1.3-3.4 1.1-.1 2.1-.2 3.3-.3.1-1.2.3-2.4.5-3.9 1.3-.1 2.5-.2 3.8-.3.1-1.1.2-2.1.3-3.4 1-.1 2.1-.2 3.4-.3.1-1.2 0-2.9.2-4l4.3-.1c.1-.9 0-2.3.1-3.5 1.1-.1 2.2-.2 3.4-.3.1-1.3.3-2.5.4-3.9 1.4-.1 2.5-.2 3.8-.3.1-1.1.2-2.2.3-3.5 1.1-.1 2.1-.1 3.4-.2.1-1.1.2-2.1.3-3.4 1.3-.1 2.5-.2 4-.3.1-1.3.1-2.5.2-3.9 1.1-.1 2.2-.2 3.4-.3.1-1.1.2-2.2.3-3.5 1.3-.1 2.5-.1 3.9-.2.1-1.3.1-2.6.2-4 1.1-.1 2.1-.2 3.4-.3.1-1 .2-2.1.3-3.4 1.3-.1 2.5-.2 3.9-.2.1-1.3.1-2.5.2-3.9 1.1-.1 2.2-.2 3.4-.3.1-1.1.2-2.2.3-3.5 1.3-.1 2.5-.1 3.9-.2.1-1.3.1-2.5.2-4 1.2-.1 2.3-.2 3.5-.3.1-1.1.1-2.2.2-3.4 1.3-.1 2.6-.1 4-.2 0-1.5.1-2.9.1-4.2h3.5v7.9c-1.1.1-2.2.2-3.5.2-.1 1.2-.2 2.4-.3 3.8-1.2.1-2.4.2-3.7.3-.1.6-.2 1.2-.2 1.8v1.7c-1.2.1-2.3.2-3.6.3-.1 1.2-.2 2.3-.3 3.8-1.2.1-2.4.2-3.8.4-.1 1.1-.2 2.2-.3 3.5-1.1.1-2.3.2-3.6.3-.1 1.2-.1 2.4-.2 3.7-1.3.1-2.5.3-3.9.4-.1 1.2-.1 2.2-.2 3.5-1.2.1-2.3.2-3.6.3-.1 1.2-.1 2.3-.2 3.7-1.3.1-2.5.3-3.9.4-.1 1.2-.1 2.3-.2 3.6-1.3 0-2.3 0-3.6 0-.1 1.4-.2 2.6-.3 3.9-1.3.1-2.5.2-3.8.3-.1 1.2-.2 2.3-.3 3.6-1.2.1-2.3.1-3.5.2-.1 1.3-.1 2.5-.2 3.9-1.2.1-2.3.2-3.6.3-.1 1.1-.2 2.2-.3 3.5-1.2.1-2.4.2-3.8.2l-.2 3.6-3.6.1-.2 3.9c-1.2.1-2.6.1-4 .2-.1 1.1-.2 2.3-.3 3.6-1.2.1-2.3.2-3.5.2-.1 1.3-.2 2.5-.4 3.8-1.3.1-2.6.1-3.8.2v3.8l-3.7.1-.1 3.8c-1.3 0-2.8 0-4.3 0 .5-1.1.5-2.2.5-3.3zm-55.1-35.8c1.5-.1 2.7-.1 4.1-.2 0-2.7 0-5.1 0-7.7 1.4-.1 2.5-.2 3.8-.3 0-2.6 0-5.1 0-7.7 1.5-.1 2.6-.1 3.9-.2.1-1.3.1-2.4.2-3.6 1.3-.1 2.3-.2 3.5-.2.1-1.4.2-2.7.2-3.9 1.5-.1 2.7-.1 3.8-.2.1-1.4.2-2.4.3-3.6 1.3-.1 2.4-.2 3.6-.3.1-1.4.1-2.6.2-4h7.8c0-1.4 0-2.5 0-3.6h2.5c7.5 0 17.2.1 24.8.1v-.8c0-1.2 0-2.2 0-3.4-10.3 0-20.5 0-30.8 0-.1 1.3-.2 2.5-.3 3.9-2.7.1-5.1.2-7.6.3-.1 1.3-.2 2.3-.2 3.5-1.4.1-2.7.2-3.8.2l-.6 4c-1.1.1-2.1.2-3.2.2-.1 1.2-.2 2.3-.3 3.6-1.4 0-2.6 0-3.9 0-.1 1.5-.2 2.7-.3 4-1.3.1-2.4.2-3.4.3l-.5 7.5c-1.4.1-2.5.2-4 .4v7.6c-1.3.1-2.3.1-3.6.2v26.7h3.6c.1-7.4.2-15.1.2-22.8zm137.9 63c0-2.7 0-5.2 0-7.8 1.5-.1 2.7-.2 4.1-.2 0-2-.1-3.9 0-5.8l.2-5.9c1.2-.1 2.3-.2 3.4-.3.4-4.9.3-13.7-.2-15.7-1.1 0-2.2 0-3.4 0 0 2 .1 4 0 6l-.3 5.9c-1.3.1-2.5.1-4 .2v11.3c-1.4.1-2.5.2-3.7.3v7.7c-3 0-59.5.2-59.5.2v3.9c.1.1 60.9.2 63.4.2zm-169.4-.1h62.8c0-1.4 0-2.6 0-4.1-1.3 0-2.4 0-3.5 0-6.4 0-12.8 0-19.2 0-13.5 0-27 0-40.5 0 .2 1.4.3 2.8.4 4.1zm31.4-35.8v3.7h4.2v-3.7zm7.9 8c-1.2 0-2.5 0-3.7 0v3.7h3.7z" fill="#e94e1b"/></svg>